<svg width="800" height="520" viewBox="0 0 800 520" xmlns="http://www.w3.org/2000/svg">
  <rect x="50" y="20" width="700" height="140" rx="8" fill="#E3F2FD" stroke="#1976D2" stroke-width="2" />
  <text x="70" y="50" font-family="Arial" font-size="16" font-weight="bold" fill="#0D47A1">LAYER 3: VERIFIABLE LOGIC (ZKP + OPA)</text>
  <g transform="translate(80, 70)">
    <rect width="200" height="70" rx="4" fill="#fff" stroke="#1976D2" />
    <text x="100" y="30" font-family="Arial" font-size="13" font-weight="bold" text-anchor="middle">ZKP-RAG Audit</text>
    <text x="100" y="50" font-family="Arial" font-size="10" text-anchor="middle">zk-SNARK Policy Proofs</text>
  </g>
  <g transform="translate(470, 70)">
    <rect width="200" height="70" rx="4" fill="#fff" stroke="#1976D2" />
    <text x="100" y="30" font-family="Arial" font-size="13" font-weight="bold" text-anchor="middle">Policy-as-Circuit</text>
    <text x="100" y="50" font-family="Arial" font-size="10" text-anchor="middle">Noir / OPA Compilation</text>
  </g>

  <rect x="50" y="180" width="700" height="140" rx="8" fill="#FFF3E0" stroke="#FB8C00" stroke-width="2" />
  <text x="70" y="210" font-family="Arial" font-size="16" font-weight="bold" fill="#E65100">LAYER 2: PROVABLE IDENTITY (SPIRE + WIMSE)</text>
  <g transform="translate(80, 230)">
    <rect width="200" height="70" rx="4" fill="#fff" stroke="#FB8C00" />
    <text x="100" y="30" font-family="Arial" font-size="13" font-weight="bold" text-anchor="middle">Unified Identity</text>
    <text x="100" y="50" font-family="Arial" font-size="10" text-anchor="middle">TPM-Bound SPIRE IDs</text>
  </g>
  <g transform="translate(470, 230)">
    <rect width="200" height="70" rx="4" fill="#fff" stroke="#FB8C00" />
    <text x="100" y="30" font-family="Arial" font-size="13" font-weight="bold" text-anchor="middle">Auto Kill-Switch</text>
    <text x="100" y="50" font-family="Arial" font-size="10" text-anchor="middle">Real-time mTLS Revocation</text>
  </g>

  <rect x="50" y="340" width="700" height="140" rx="8" fill="#F1F8E9" stroke="#43A047" stroke-width="2" />
  <text x="70" y="370" font-family="Arial" font-size="16" font-weight="bold" fill="#1B5E20">LAYER 1: CONFIDENTIAL FOUNDATION (TEE + TPM)</text>
  <g transform="translate(80, 390)">
    <rect width="200" height="70" rx="4" fill="#fff" stroke="#43A047" />
    <text x="100" y="30" font-family="Arial" font-size="13" font-weight="bold" text-anchor="middle">Confidential Enclaves</text>
    <text x="100" y="50" font-family="Arial" font-size="10" text-anchor="middle">Intel TDX / NVIDIA H100</text>
  </g>
  <g transform="translate(470, 390)">
    <rect width="200" height="70" rx="4" fill="#fff" stroke="#43A047" />
    <text x="100" y="30" font-family="Arial" font-size="13" font-weight="bold" text-anchor="middle">Integrity Monitoring</text>
    <text x="100" y="50" font-family="Arial" font-size="10" text-anchor="middle">Keylime / IMA / EVM</text>
  </g>
</svg>
