<svg width="800" height="600" viewBox="0 0 800 600" xmlns="http://www.w3.org/2000/svg">
  <rect width="800" height="600" fill="#f8f9fa" />
  
  <rect x="50" y="40" width="700" height="150" rx="10" fill="#e3f2fd" stroke="#1976d2" stroke-width="2" />
  <text x="400" y="70" font-family="Arial" font-size="18" font-weight="bold" text-anchor="middle" fill="#0d47a1">LAYER 3: VERIFIABLE LOGIC &amp; PRIVACY</text>
  
  <g transform="translate(100, 90)">
    <rect width="180" height="70" rx="5" fill="#fff" stroke="#1976d2" />
    <text x="90" y="30" font-family="Arial" font-size="14" font-weight="bold" text-anchor="middle">ZKP-RAG</text>
    <text x="90" y="50" font-family="Arial" font-size="11" text-anchor="middle" fill="#555">zk-SNARK Audits</text>
  </g>
  
  <g transform="translate(310, 90)">
    <rect width="180" height="70" rx="5" fill="#fff" stroke="#1976d2" />
    <text x="90" y="30" font-family="Arial" font-size="14" font-weight="bold" text-anchor="middle">Policy-as-Circuit</text>
    <text x="90" y="50" font-family="Arial" font-size="11" text-anchor="middle" fill="#555">Noir / Circom OPA</text>
  </g>
  
  <g transform="translate(520, 90)">
    <rect width="180" height="70" rx="5" fill="#fff" stroke="#1976d2" />
    <text x="90" y="30" font-family="Arial" font-size="14" font-weight="bold" text-anchor="middle">Verifiable Inference</text>
    <text x="90" y="50" font-family="Arial" font-size="11" text-anchor="middle" fill="#555">Model Integrity Proofs</text>
  </g>

  <rect x="50" y="220" width="700" height="150" rx="10" fill="#fff3e0" stroke="#fb8c00" stroke-width="2" />
  <text x="400" y="250" font-family="Arial" font-size="18" font-weight="bold" text-anchor="middle" fill="#e65100">LAYER 2: PROVABLE BRIDGE &amp; RESIDENCY</text>
  
  <g transform="translate(100, 270)">
    <rect width="180" height="70" rx="5" fill="#fff" stroke="#fb8c00" />
    <text x="90" y="30" font-family="Arial" font-size="14" font-weight="bold" text-anchor="middle">Unified Identity</text>
    <text x="90" y="50" font-family="Arial" font-size="11" text-anchor="middle" fill="#555">SPIRE Workload IDs</text>
  </g>
  
  <g transform="translate(310, 270)">
    <rect width="180" height="70" rx="5" fill="#fff" stroke="#fb8c00" />
    <text x="90" y="30" font-family="Arial" font-size="14" font-weight="bold" text-anchor="middle">ZKP Geofencing</text>
    <text x="90" y="50" font-family="Arial" font-size="11" text-anchor="middle" fill="#555">Proof of Residency</text>
  </g>
  
  <g transform="translate(520, 270)">
    <rect width="180" height="70" rx="5" fill="#fff" stroke="#fb8c00" />
    <text x="90" y="30" font-family="Arial" font-size="14" font-weight="bold" text-anchor="middle">Agent Kill-Switch</text>
    <text x="90" y="50" font-family="Arial" font-size="11" text-anchor="middle" fill="#555">mTLS Auto-Revocation</text>
  </g>

  <rect x="50" y="400" width="700" height="150" rx="10" fill="#f1f8e9" stroke="#43a047" stroke-width="2" />
  <text x="400" y="430" font-family="Arial" font-size="18" font-weight="bold" text-anchor="middle" fill="#1b5e20">LAYER 1: CONFIDENTIAL FOUNDATION &amp; SILICON</text>
  
  <g transform="translate(100, 450)">
    <rect width="180" height="70" rx="5" fill="#fff" stroke="#43a047" />
    <text x="90" y="30" font-family="Arial" font-size="14" font-weight="bold" text-anchor="middle">Confidential CPU/GPU</text>
    <text x="90" y="50" font-family="Arial" font-size="11" text-anchor="middle" fill="#555">Intel TDX / NVIDIA H100</text>
  </g>
  
  <g transform="translate(310, 450)">
    <rect width="180" height="70" rx="5" fill="#fff" stroke="#43a047" />
    <text x="90" y="30" font-family="Arial" font-size="14" font-weight="bold" text-anchor="middle">Hardware Integrity</text>
    <text x="90" y="50" font-family="Arial" font-size="11" text-anchor="middle" fill="#555">TPM 2.0 / IMA / EVM</text>
  </g>
  
  <g transform="translate(520, 450)">
    <rect width="180" height="70" rx="5" fill="#fff" stroke="#43a047" />
    <text x="90" y="30" font-family="Arial" font-size="14" font-weight="bold" text-anchor="middle">Remote Attestation</text>
    <text x="90" y="50" font-family="Arial" font-size="11" text-anchor="middle" fill="#555">Keylime Verification</text>
  </g>

  <line x1="400" y1="400" x2="400" y2="370" stroke="#aaa" stroke-width="2" stroke-dasharray="5,5" />
  <line x1="400" y1="220" x2="400" y2="190" stroke="#aaa" stroke-width="2" stroke-dasharray="5,5" />
</svg>
